<svg id="Layer_7" data-name="Layer 7" xmlns="http://www.w3.org/2000/svg" viewBox="0 0 251.98 176.96"><defs><style>.cls-1{fill:none;stroke:#000;stroke-linecap:round;stroke-linejoin:round;stroke-width:5px;}</style></defs><title>cap</title><path class="cls-1" d="M932.7,735c1.41,5.06,8.23,27.41,28.89,36.54a48.13,48.13,0,0,0,24.25,3.51c24.74-2.11,33.54-13.22,72.53-32.61,0,0,31.81-15.75,49.18-7.46,0.32,0.15.58,0.29,0.79,0.4,7.87,4.26,14.17,12.81,12.77,17.5-1.95,6.53-19.49,8.11-32.6,5.09-14.2-3.27-23.44-12-27.62-16.57" transform="translate(-871.82 -600.87)"/><path class="cls-1" d="M1075.66,709.2a85.64,85.64,0,0,0-5.64-41.72,87.25,87.25,0,0,0-15.35-24.59c-17.68-20-39.81-26.4-47.47-28.5-39.7-10.91-72.52,5.8-77.91,8.66a105.38,105.38,0,0,0-42.2,40.76c-11.28,20.39-12.25,39.46-12.67,50a127.05,127.05,0,0,0,3.3,34.13,4.76,4.76,0,0,0,5.76,3.54A296.38,296.38,0,0,0,932.7,735c9.43-4.14,19.18-9.05,40.75-18.37,12.1-5.22,18.15-7.83,21.91-9.16,17.22-6.06,36-12.64,57.22-8a71.48,71.48,0,0,1,23.08,9.67c15,9.49,26.16,18.86,32.68,26.19" transform="translate(-871.82 -600.87)"/><path class="cls-1" d="M966.06,611.65A150.52,150.52,0,0,0,932.7,735" transform="translate(-871.82 -600.87)"/><path class="cls-1" d="M955.85,613.45a10.18,10.18,0,0,1,3.07-7.75,10,10,0,0,1,12-.57,10.17,10.17,0,0,1,3.88,5.73" transform="translate(-871.82 -600.87)"/></svg>