<svg id="Layer_7" data-name="Layer 7" xmlns="http://www.w3.org/2000/svg" viewBox="0 0 277.17 95.09"><defs><style>.cls-1{fill:#fff;}</style></defs><title>logo</title><path class="cls-1" d="M952.61,285.51H942.1l-23.58,52.4h11.86l5-11.66h23.88l5,11.66h12ZM939.36,316.9l7.92-18.5,8,18.5h-15.9Z" transform="translate(-898.72 -265.17)"/><polygon class="cls-1" points="120.5 20.34 120.5 52.66 94.18 20.34 85 20.34 85 72.74 96.29 72.74 96.29 40.43 122.6 72.74 131.78 72.74 131.78 20.34 120.5 20.34"/><path class="cls-1" d="M1089.77,314.67a13.92,13.92,0,0,0-5.21-4.17,12.76,12.76,0,0,0,3.4-3.75,13.66,13.66,0,0,0,1.87-7.14,12.22,12.22,0,0,0-5.24-10.42c-3.38-2.44-8.2-3.68-14.34-3.68h-24.62v52.4h26.06c6.61,0,11.75-1.26,15.26-3.75a12.65,12.65,0,0,0,5.46-10.93A13.75,13.75,0,0,0,1089.77,314.67Zm-11.37-13.83a4.83,4.83,0,0,1-2.19,4.32c-1.57,1.06-3.92,1.59-7,1.59H1057v-11.9h12.25c3,0,5.39.54,7,1.59A4.9,4.9,0,0,1,1078.4,300.84ZM1057,316h14.12c9.87,0,9.87,4.72,9.87,6.27s0,6.27-9.87,6.27H1057V316Z" transform="translate(-898.72 -265.17)"/><path class="cls-1" d="M1130.44,285.51h-10.51l-23.58,52.4h11.86l5-11.66h23.88l5,11.66h12ZM1117.2,316.9l7.92-18.5,8,18.5h-15.9Z" transform="translate(-898.72 -265.17)"/><polygon class="cls-1" points="267.83 0 267.83 85.74 9.34 85.74 9.34 9.34 184.04 9.34 184.04 0 0 0 0 95.09 277.17 95.09 277.17 0 267.83 0"/><rect class="cls-1" x="207.93" width="37" height="9.34"/></svg>