<svg id="Layer_7" data-name="Layer 7" xmlns="http://www.w3.org/2000/svg" viewBox="0 0 136.37 177.14"><defs><style>.cls-1{fill:none;stroke:#000;stroke-linecap:round;stroke-linejoin:round;stroke-width:5px;}</style></defs><title>sock</title><path class="cls-1" d="M660.13,624.05a5.3,5.3,0,0,0-5.08,6.44,179.9,179.9,0,0,1,4,32.42c0.57,17.45.75,26.57-2.7,37.07h0s-0.67,2-1.5,3.87c-3.81,8.8-52,58.82-52,58.82-4.58,4.58-9.92,10.41-9.16,17.31,0.74,6.73,7,11.13,8.2,12,5.2,3.5,10.54,3.41,16.57,3.32a51.44,51.44,0,0,0,19.68-4.07c10.52-4.52,14.14-11,23.69-21.15,12.52-13.26,25.05-21.46,32.69-27.11,7.27-5.38,25.48-15.37,29.49-28.72a26.09,26.09,0,0,0,.83-3.89v-0.05a26.39,26.39,0,0,0-1.14-10.13c-1.9-5.65-6.24-13-7-14.32-2.38-4.17-3.14-8.09-3-26.51,0-8.58.26-18.86,0.86-30.55a5.31,5.31,0,0,0-5.4-5.58Z" transform="translate(-591.13 -620.63)"/><path class="cls-1" d="M694.54,742.9c-7.47-12.88-7.75-28.38-.51-40.35s19.52-15.9,22.68-16.77" transform="translate(-591.13 -620.63)"/><path class="cls-1" d="M656.53,638.08c8.74,0.6,18.29.89,28.54,0.67,10.4-.23,20.06-1,28.87-2" transform="translate(-591.13 -620.63)"/><path class="cls-1" d="M602.86,762.66a40.14,40.14,0,0,1,7.45,2.78c14.56,7.15,20.84,21.34,23.11,27.48" transform="translate(-591.13 -620.63)"/></svg>