<svg id="Layer_7" data-name="Layer 7" xmlns="http://www.w3.org/2000/svg" viewBox="0 0 215.57 227.19"><defs><style>.cls-1{fill:none;stroke:#000;stroke-linecap:round;stroke-linejoin:round;stroke-width:5px;}</style></defs><title>sweatshirt</title><path class="cls-1" d="M420.8,654.3h0a48.91,48.91,0,0,0,26.06-4.48C437.08,654.54,427.63,654.44,420.8,654.3Z" transform="translate(-312.92 -601.25)"/><path class="cls-1" d="M420.65,654.3h0Z" transform="translate(-312.92 -601.25)"/><path class="cls-1" d="M420.88,619.79H421a61.18,61.18,0,0,1,32.9,10.07,87.37,87.37,0,0,0,9.72-14.12,84.66,84.66,0,0,0-41.57-12h-1.19" transform="translate(-312.92 -601.25)"/><path class="cls-1" d="M501.5,816a41,41,0,0,0,20.06-.5l-0.07-7.64-20.1.51Z" transform="translate(-312.92 -601.25)"/><path class="cls-1" d="M448.92,648.77c-0.57.31-1.14,0.61-1.71,0.89C447.78,649.37,448.35,649.08,448.92,648.77Z" transform="translate(-312.92 -601.25)"/><path class="cls-1" d="M420.8,654.11a87,87,0,0,0,33.15-24.25A61.18,61.18,0,0,0,421,619.79h-0.17" transform="translate(-312.92 -601.25)"/><path class="cls-1" d="M420.42,825.9h0.23l3.41,0c17.48,0.06,33.92-.62,49.22-1.78l-0.63-9.58c-19.2.56-31.8,0.52-52,.52h-0.22" transform="translate(-312.92 -601.25)"/><path class="cls-1" d="M420.45,815.09h0.22c20.19,0,32.79,0,52-.52a8.7,8.7,0,0,0,6.06-1.71c5.2-4.45,1.17-16-1.81-29.94-1.33-6.2-2.36-15.67-4.41-34.61-0.67-6.16-1-12.9-1.91-26.35a197,197,0,0,1-.68-19.84,149.43,149.43,0,0,1,1.41-16.76h0c0.09-.33.2-0.66,0.3-1,0.12-1.68,1-4,2.52-7.87a42,42,0,0,1,3-6.54c0.22,0.09-3.29,7-5.54,14.41,0.36,0.18.77,0.4,1.22,0.65a39.31,39.31,0,0,1,4.14,2.72c13.6,10.39,17.85,84.54,17.85,84.54,0.42,7.29,1.11,18.4,2.22,32.16a4.25,4.25,0,0,0,4.34,3.91l20.1-.51a4.44,4.44,0,0,0,4.33-4.32c0.49-18.74,1-79-12.62-118.69-5.88-17.14-13-26.29-19.38-32.38a72.07,72.07,0,0,0-30.14-16.83,45.22,45.22,0,0,1-12.54,11.88c-0.74.47-1.48,0.9-2.21,1.3-0.57.32-1.14,0.6-1.71,0.89l-0.35.18a48.91,48.91,0,0,1-26.06,4.48" transform="translate(-312.92 -601.25)"/><path class="cls-1" d="M474.13,676.49c-1.54,3.91-2.4,6.18-2.52,7.87,2.24-7.4,5.76-14.31,5.54-14.41A42,42,0,0,0,474.13,676.49Z" transform="translate(-312.92 -601.25)"/><path class="cls-1" d="M420.36,654.29h0.29v-0.13Z" transform="translate(-312.92 -601.25)"/><path class="cls-1" d="M420.8,654.3h0Z" transform="translate(-312.92 -601.25)"/><path class="cls-1" d="M451.13,647.46c-0.74.47-1.48,0.9-2.21,1.3C449.66,648.36,450.4,647.93,451.13,647.46Z" transform="translate(-312.92 -601.25)"/><path class="cls-1" d="M454,629.86h0a87,87,0,0,1-33.15,24.25v0.12l0.15,0.06H420.8c6.83,0.14,16.28.23,26.06-4.47l0.35-.18c0.57-.28,1.14-0.57,1.71-0.89,0.74-.41,1.48-0.84,2.21-1.3a45.22,45.22,0,0,0,12.54-11.88,22.73,22.73,0,0,0,0-19.84,87.37,87.37,0,0,1-9.72,14.12h0Z" transform="translate(-312.92 -601.25)"/><path class="cls-1" d="M420.8,654.11l-0.14.06,0.14,0.06v-0.12Z" transform="translate(-312.92 -601.25)"/><path class="cls-1" d="M447.21,649.65l-0.35.18Z" transform="translate(-312.92 -601.25)"/><path class="cls-1" d="M420.95,654.29l-0.15-.06v0.06h0.15Z" transform="translate(-312.92 -601.25)"/><path class="cls-1" d="M420.8,654.23l-0.14-.06v0.13h0.14v-0.06Z" transform="translate(-312.92 -601.25)"/><path class="cls-1" d="M420.61,654.3h0a48.91,48.91,0,0,1-26.06-4.48C404.33,654.54,413.78,654.44,420.61,654.3Z" transform="translate(-312.92 -601.25)"/><path class="cls-1" d="M420.75,654.3h0Z" transform="translate(-312.92 -601.25)"/><path class="cls-1" d="M420.53,619.79h-0.17a61.18,61.18,0,0,0-32.9,10.07,87.37,87.37,0,0,1-9.72-14.12,84.66,84.66,0,0,1,41.57-12h1.19" transform="translate(-312.92 -601.25)"/><path class="cls-1" d="M339.91,816a41,41,0,0,1-20.06-.5l0.07-7.64,20.1,0.51Z" transform="translate(-312.92 -601.25)"/><path class="cls-1" d="M392.49,648.77c0.57,0.31,1.14.61,1.71,0.89C393.63,649.37,393.06,649.08,392.49,648.77Z" transform="translate(-312.92 -601.25)"/><path class="cls-1" d="M420.61,654.11a87,87,0,0,1-33.15-24.25,61.18,61.18,0,0,1,32.9-10.07h0.17" transform="translate(-312.92 -601.25)"/><path class="cls-1" d="M421,825.9h-0.23l-3.41,0c-17.48.06-33.92-.62-49.22-1.78l0.63-9.58c19.2,0.56,31.8.52,52,.52H421" transform="translate(-312.92 -601.25)"/><path class="cls-1" d="M421,815.09h-0.22c-20.19,0-32.79,0-52-.52a8.7,8.7,0,0,1-6.06-1.71c-5.2-4.45-1.17-16,1.81-29.94,1.33-6.2,2.36-15.67,4.41-34.61,0.67-6.16,1-12.9,1.91-26.35a197,197,0,0,0,.68-19.84,149.43,149.43,0,0,0-1.41-16.76h0c-0.09-.33-0.2-0.66-0.3-1-0.12-1.68-1-4-2.52-7.87a42,42,0,0,0-3-6.54c-0.22.09,3.29,7,5.54,14.41-0.36.18-.77,0.4-1.22,0.65a39.31,39.31,0,0,0-4.14,2.72c-13.6,10.39-17.85,84.54-17.85,84.54-0.42,7.29-1.11,18.4-2.22,32.16a4.25,4.25,0,0,1-4.34,3.91l-20.1-.51a4.44,4.44,0,0,1-4.33-4.32c-0.49-18.74-1-79,12.62-118.69,5.88-17.14,13-26.29,19.38-32.38a72.07,72.07,0,0,1,30.14-16.83,45.22,45.22,0,0,0,12.54,11.88c0.74,0.47,1.48.9,2.21,1.3,0.57,0.32,1.14.6,1.71,0.89l0.35,0.18a48.91,48.91,0,0,0,26.06,4.48" transform="translate(-312.92 -601.25)"/><path class="cls-1" d="M367.28,676.49c1.54,3.91,2.4,6.18,2.52,7.87-2.24-7.4-5.76-14.31-5.54-14.41A42,42,0,0,1,367.28,676.49Z" transform="translate(-312.92 -601.25)"/><path class="cls-1" d="M421,654.29h-0.29v-0.13Z" transform="translate(-312.92 -601.25)"/><path class="cls-1" d="M420.61,654.3h0Z" transform="translate(-312.92 -601.25)"/><path class="cls-1" d="M390.27,647.46c0.74,0.47,1.48.9,2.21,1.3C391.75,648.36,391,647.93,390.27,647.46Z" transform="translate(-312.92 -601.25)"/><path class="cls-1" d="M387.46,629.86h0a87,87,0,0,0,33.15,24.25v0.12l-0.15.06h0.15c-6.83.14-16.28,0.23-26.06-4.47l-0.35-.18c-0.57-.28-1.14-0.57-1.71-0.89-0.74-.41-1.48-0.84-2.21-1.3a45.22,45.22,0,0,1-12.54-11.88,22.73,22.73,0,0,1,0-19.84,87.37,87.37,0,0,0,9.72,14.12h0Z" transform="translate(-312.92 -601.25)"/><path class="cls-1" d="M420.61,654.11l0.14,0.06-0.14.06v-0.12Z" transform="translate(-312.92 -601.25)"/><path class="cls-1" d="M394.2,649.65l0.35,0.18Z" transform="translate(-312.92 -601.25)"/><path class="cls-1" d="M420.46,654.29l0.15-.06v0.06h-0.15Z" transform="translate(-312.92 -601.25)"/><path class="cls-1" d="M420.61,654.23l0.14-.06v0.13h-0.14v-0.06Z" transform="translate(-312.92 -601.25)"/><line class="cls-1" x1="101.06" y1="53.04" x2="100.97" y2="92.37"/><line class="cls-1" x1="115.43" y1="53.01" x2="115.45" y2="86.75"/></svg>