<svg id="Layer_7" data-name="Layer 7" xmlns="http://www.w3.org/2000/svg" viewBox="0 0 194.46 198.06"><defs><style>.cls-1{fill:none;stroke:#000;stroke-linecap:round;stroke-linejoin:round;stroke-width:5px;}</style></defs><title>tshirt</title><path class="cls-1" d="M167.8,654.29A51,51,0,0,0,184.45,652a74.91,74.91,0,0,1-19.14,2.29C166.14,654.33,167,654.33,167.8,654.29Z" transform="translate(-68.07 -632.78)"/><path class="cls-1" d="M165.3,654.32c-0.56,0-1.11,0-1.67,0C164.07,654.31,164.63,654.32,165.3,654.32Z" transform="translate(-68.07 -632.78)"/><path class="cls-1" d="M162.8,654.29h0Z" transform="translate(-68.07 -632.78)"/><path class="cls-1" d="M109.1,677.1c-0.71-1.85-1.32-3.26-1.59-3.89-0.59-1.36-1.46-3.28-1.49-3.26a114.23,114.23,0,0,1,5.06,12.94c-0.14-.48-0.23-0.84-0.27-1A50,50,0,0,0,109.1,677.1Z" transform="translate(-68.07 -632.78)"/><path class="cls-1" d="M111.85,685.35h0c-0.11-.32-0.21-0.61-0.3-0.9l0,0.06c0.63,2.14,1.09,4,1.44,5.59l0-.12C112.47,687.64,111.85,685.35,111.85,685.35Z" transform="translate(-68.07 -632.78)"/><path class="cls-1" d="M119.49,635.58l2,0.64A10.25,10.25,0,0,0,119.49,635.58Z" transform="translate(-68.07 -632.78)"/><path class="cls-1" d="M111.55,684.45q-0.23-.79-0.48-1.56C111.2,683.31,111.35,683.84,111.55,684.45Z" transform="translate(-68.07 -632.78)"/><path class="cls-1" d="M113,690.1c0.14,0.63.26,1.32,0.39,2.07l0,0C113.32,691.55,113.18,690.86,113,690.1Z" transform="translate(-68.07 -632.78)"/><path class="cls-1" d="M162.8,654.29A51,51,0,0,1,146.16,652a74.91,74.91,0,0,0,19.14,2.29C164.46,654.33,163.63,654.33,162.8,654.29Z" transform="translate(-68.07 -632.78)"/><path class="cls-1" d="M165.3,654.32c0.56,0,1.11,0,1.67,0C166.53,654.31,166,654.32,165.3,654.32Z" transform="translate(-68.07 -632.78)"/><path class="cls-1" d="M167.8,654.29h0Z" transform="translate(-68.07 -632.78)"/><path class="cls-1" d="M221.5,677.1c0.71-1.85,1.32-3.26,1.59-3.89,0.59-1.36,1.46-3.28,1.49-3.26a114.23,114.23,0,0,0-5.06,12.94c0.14-.48.23-0.84,0.27-1A50,50,0,0,1,221.5,677.1Z" transform="translate(-68.07 -632.78)"/><path class="cls-1" d="M218.75,685.35h0c0.11-.32.21-0.61,0.3-0.9l0,0.06c-0.63,2.14-1.09,4-1.44,5.59l0-.12C218.13,687.64,218.75,685.35,218.75,685.35Z" transform="translate(-68.07 -632.78)"/><path class="cls-1" d="M211.11,635.58l-2,.64A10.25,10.25,0,0,1,211.11,635.58Z" transform="translate(-68.07 -632.78)"/><path class="cls-1" d="M219,684.45q0.23-.79.48-1.56C219.41,683.31,219.25,683.84,219,684.45Z" transform="translate(-68.07 -632.78)"/><path class="cls-1" d="M217.59,690.1c-0.14.63-.26,1.32-0.39,2.07l0,0C217.28,691.55,217.42,690.86,217.59,690.1Z" transform="translate(-68.07 -632.78)"/><path class="cls-1" d="M165.3,825.43h0.57c10.83-.23,19.19.37,35.93,1.59,5.86,0.43,11.09.88,15.51,1.3a4.8,4.8,0,0,0,5.24-5.18q-2.08-25.43-3.42-52.27c-1.33-27.22-1.92-53.48-1.92-78.69l0,0c0.11-.58.26-1.27,0.43-2l0-.12c0.51-2.33,1.13-4.63,1.13-4.63h0c0.11-.32.21-0.61,0.3-0.9q0.23-.79.48-1.56c0.14-.48.23-0.84,0.27-1a50,50,0,0,1,1.7-4.77c0.71-1.85,1.32-3.26,1.59-3.89,0.59-1.36,1.46-3.28,1.49-3.26a114.23,114.23,0,0,0-5.06,12.94c-0.12.43-.28,1-0.48,1.56l0,0.06c-0.63,2.14-1.09,4-1.44,5.59-0.14.63-.26,1.32-0.39,2.07,2.06,1.82,5,4.51,8.29,8,7.26,7.65,7.5,9.77,10.21,10.21,4.3,0.69,5.16-4.43,19.05-17.17,2.17-2,4.92-4.42,5.24-8.08,0.3-3.48-1.81-6.31-2.84-7.64-22.86-29.7-34.29-44.54-46.06-41.91h0l-2,.64-0.12,0h0c-3.77,1.75-3.86,5.32-12.33,10.45-1.67,1-13.87,8.16-28.9,7.58H167c-0.44,0-1,0-1.67,0s-1.23,0-1.67,0H162.8c-15,.57-27.23-6.57-28.9-7.58-8.47-5.12-8.55-8.7-12.33-10.45h0l-0.12,0-2-.64h0c-11.77-2.64-23.2,12.21-46.06,41.91-1,1.33-3.14,4.15-2.84,7.64,0.31,3.66,3.07,6.09,5.24,8.08,13.9,12.74,14.75,17.86,19.05,17.17,2.71-.44,2.95-2.56,10.21-10.21,3.31-3.48,6.23-6.18,8.29-8-0.12-.75-0.25-1.44-0.39-2.07-0.35-1.56-.81-3.45-1.44-5.59l0-.06c-0.2-.61-0.36-1.14-0.48-1.56A114.23,114.23,0,0,0,106,669.95s0.9,1.9,1.49,3.26c0.27,0.63.88,2,1.59,3.89a50,50,0,0,1,1.7,4.77c0,0.17.14,0.53,0.27,1s0.32,1,.48,1.56c0.09,0.29.19,0.58,0.3,0.9h0s0.61,2.29,1.13,4.63l0,0.12c0.17,0.76.31,1.45,0.43,2l0,0c0,25.21-.59,51.47-1.92,78.69q-1.31,26.83-3.42,52.27a4.8,4.8,0,0,0,5.24,5.18c4.41-.42,9.64-0.88,15.51-1.3,16.74-1.22,25.11-1.83,35.93-1.59h0.57Z" transform="translate(-68.07 -632.78)"/><path class="cls-1" d="M165.3,654.32c0.56,0,1.11,0,1.67,0h0.83c15,0.57,27.23-6.57,28.9-7.58,8.47-5.12,8.55-8.7,12.33-10.45l0.12,0a136.75,136.75,0,0,1-40.76,6.41q-1.54,0-3.09,0t-3.09,0a136.75,136.75,0,0,1-40.76-6.41l0.12,0c3.77,1.75,3.86,5.32,12.33,10.45,1.67,1,13.87,8.16,28.9,7.58h0.83C164.19,654.31,164.74,654.33,165.3,654.32Z" transform="translate(-68.07 -632.78)"/></svg>