<svg version="1.1" data-name="Layer 6" xmlns="http://www.w3.org/2000/svg" xmlns:xlink="http://www.w3.org/1999/xlink" viewBox="0 0 938 551">
  <defs>
    <style>
      .cls-1 {
        opacity: 0.4;
      }

      .cls-2 {
        fill: #fff;
      }
    </style>
  </defs>
  <title>webdesign</title>
<g transform="scale(1.1) translate(-25,-25)" >
  <g class="cls-1">
    <path class="cls-2" d="M-46.18,447.52v1.21a418.24,418.24,0,0,1,25.24,35.91c0.45,0.71.87,1.41,1.31,2.12h0.88c-0.52-.84-1-1.68-1.56-2.52A419.11,419.11,0,0,0-46.18,447.52Z" transform="translate(46.18 64.24)"/>
  </g>
  <g class="cls-1">
    <path class="cls-2" d="M-46.18,402.1v1.11A423.2,423.2,0,0,1-.66,462.29c5.24,8.21,10,16.37,14.43,24.48h0.85C10.15,478.53,5.3,470.23,0,461.88A424.08,424.08,0,0,0-46.18,402.1Z" transform="translate(46.18 64.24)"/>
  </g>
  <g class="cls-1">
    <path class="cls-2" d="M-46.18,360.14v1a426.82,426.82,0,0,1,65.81,78.76,406.58,406.58,0,0,1,26.08,46.83h0.83a407.4,407.4,0,0,0-26.28-47.24A427.72,427.72,0,0,0-46.18,360.14Z" transform="translate(46.18 64.24)"/>
  </g>
  <g class="cls-1">
    <path class="cls-2" d="M-46.18,321.13v1Q5,364.51,39.91,417.57a410.19,410.19,0,0,1,36.41,69.19h0.81a411,411,0,0,0-36.59-69.6Q5.55,363.85-46.18,321.13Z" transform="translate(46.18 64.24)"/>
  </g>
  <g class="cls-1">
    <path class="cls-2" d="M-46.18,284.26v0.93c43,31.58,78.65,68.36,106.38,110a418.78,418.78,0,0,1,45.59,91.55h0.8a419.64,419.64,0,0,0-45.77-92C32.94,352.92-2.87,316-46.18,284.26Z" transform="translate(46.18 64.24)"/>
  </g>
  <g class="cls-1">
    <path class="cls-2" d="M-46.18,249.33v0.89c52.12,34,94.56,75.09,126.66,122.64,26.44,39.17,42.29,77.58,53.85,113.9h0.79c-11.58-36.44-27.47-75-54-114.32C48.86,324.69,6.21,283.48-46.18,249.33Z" transform="translate(46.18 64.24)"/>
  </g>
  <g class="cls-1">
    <path class="cls-2" d="M-46.18,216.07v0.87C15.15,252.71,64.44,297.47,100.76,350.5c32.33,47.21,49.08,93.46,61.44,136.26H163c-12.38-42.91-29.15-89.3-61.6-136.68C64.92,296.85,15.42,251.93-46.18,216.07Z" transform="translate(46.18 64.24)"/>
  </g>
  <g class="cls-1">
    <path class="cls-2" d="M-46.18,184.29v0.84C24.48,222,80.63,270,121,328.15c38.5,55.43,55.24,109.73,68.64,158.62h0.78c-13.42-49-30.18-103.43-68.8-159C81.11,269.35,24.75,221.2-46.18,184.29Z" transform="translate(46.18 64.24)"/>
  </g>
  <g class="cls-1">
    <path class="cls-2" d="M141.94,305.36C97.4,242.15,34.14,191.23-46.18,153.87v0.83C33.87,192,96.93,242.77,141.32,305.79c42.61,60.47,59,119.82,73.4,172.18l2.43,8.79h0.78l-2.48-9C201,425.35,184.62,365.93,141.94,305.36Z" transform="translate(46.18 64.24)"/>
  </g>
  <g class="cls-1">
    <path class="cls-2" d="M162.22,283C115.56,217.72,48.77,165.86-36.32,128.84q-4.88-2.13-9.86-4.18v0.81q4.82,2,9.56,4.06c85,37,151.66,88.75,198.23,153.91,43,60.18,59.67,119.47,74.38,171.79,3,10.77,6,21.29,9.08,31.54h0.78c-3.11-10.31-6.09-20.89-9.14-31.74C222,402.64,205.3,343.28,162.22,283Z" transform="translate(46.18 64.24)"/>
  </g>
  <g class="cls-1">
    <path class="cls-2" d="M182.5,260.64C135.64,196,68.86,144.85-16,108.56q-14.71-6.29-30.18-12v0.8Q-30.87,103-16.3,109.25c84.73,36.23,151.41,87.31,198.19,151.82,43.42,59.88,60.39,119.14,75.36,171.41,5.41,18.9,10.61,37,16.67,54.27h0.8c-6.1-17.33-11.31-35.5-16.74-54.48C243,379.95,226,320.63,182.5,260.64Z" transform="translate(46.18 64.24)"/>
  </g>
  <g class="cls-1">
    <path class="cls-2" d="M202.78,238.28C155.73,174.3,89,123.84,4.32,88.29q-24.24-10.18-50.5-18.76v0.79Q-20.09,78.85,4,89c84.51,35.5,151.17,85.88,198.14,149.74,43.83,59.59,61.11,118.8,76.35,171,8,27.37,15.5,53.09,25.88,77h0.82c-10.43-24-18-49.75-26-77.21C264,357.25,246.69,298,202.78,238.28Z" transform="translate(46.18 64.24)"/>
  </g>
  <g class="cls-1">
    <path class="cls-2" d="M223.06,215.92C175.81,152.59,109.05,102.83,24.65,68A676.07,676.07,0,0,0-46.18,43.46v0.78A675.1,675.1,0,0,1,24.36,68.7c84.28,34.77,150.93,84.45,198.1,147.66C266.71,275.67,284.29,334.84,299.8,387c10.77,36.26,20.7,69.62,37.56,99.72h0.86c-17-30.14-26.9-63.57-37.71-99.93C285,334.57,267.39,275.33,223.06,215.92Z" transform="translate(46.18 64.24)"/>
  </g>
  <g class="cls-1">
    <path class="cls-2" d="M243.34,193.55C195.9,130.89,129.16,81.82,45,47.73A692.08,692.08,0,0,0-46.18,18.31v0.77A691.14,691.14,0,0,1,44.69,48.43c84.06,34,150.69,83,198,145.58,44.68,59,62.57,118.16,78.35,170.33C334.89,410,347.32,451,374,486.76h0.94c-26.79-35.79-39.25-76.9-53.08-122.64C306,311.89,288.09,252.68,243.34,193.55Z" transform="translate(46.18 64.24)"/>
  </g>
  <g class="cls-1">
    <path class="cls-2" d="M263.62,171.19C216,109.17,149.26,60.81,65.3,27.46,31,13.85-6.23,2.68-46.18-6V-5.2A707,707,0,0,1,65,28.15c83.84,33.31,150.45,81.59,198,143.5,45.11,58.73,63.3,117.84,79.36,170,16.4,53.27,32,103.88,73.34,145.12h1c-41.44-40.82-56.49-89.65-73.63-145.34C327,289.21,308.81,230,263.62,171.19Z" transform="translate(46.18 64.24)"/>
  </g>
  <g class="cls-1">
    <path class="cls-2" d="M364.4,318.73c-16.35-52.19-34.87-111.34-80.5-169.9C236.08,87.46,169.37,39.8,85.63,7.18,45.6-8.42,1.49-20.65-46.18-29.41v0.76C1.39-19.9,45.41-7.69,85.36,7.88,169,40.45,235.57,88,283.3,149.29c45.55,58.45,64.05,117.53,80.38,169.66,18.55,59.23,36.08,115.17,89.17,158.74q5.76,4.74,11.82,9.07H466q-6.49-4.6-12.65-9.65C400.41,433.69,382.92,377.85,364.4,318.73Z" transform="translate(46.18 64.24)"/>
  </g>
  <g class="cls-1">
    <path class="cls-2" d="M840.29,486.76q25.12-6.34,51.53-14.26v-0.78q-28,8.41-54.61,15h3.08Z" transform="translate(46.18 64.24)"/>
  </g>
  <g class="cls-1">
    <path class="cls-2" d="M475.45,454.44C422.29,410.9,404.52,355.11,385.71,296c-17.43-54.72-35.46-111.3-81.53-169.57C256.17,65.75,189.48,18.79,106-13.1,60.27-30.55,9.29-43.58-46.18-52v0.76C9.2-42.83,60.08-29.82,105.69-12.4c83.39,31.85,150,78.73,197.9,139.34,46,58.17,64,114.68,81.4,169.34,18.85,59.17,36.66,115.06,90,158.74a226,226,0,0,0,51.51,31.75h1.86A225.48,225.48,0,0,1,475.45,454.44Z" transform="translate(46.18 64.24)"/>
  </g>
  <g class="cls-1">
    <path class="cls-2" d="M323.87,104.58c46.44,57.89,64.74,114.38,82.44,169,19.15,59.11,37.23,114.95,90.79,158.74,36.31,29.76,81.05,47.65,136.28,54.43H640c-58.1-6.12-104.8-24.17-142.42-55-53.39-43.65-71.44-99.38-90.55-158.39-17.72-54.7-36-111.26-82.56-169.26C276.27,44,209.6-2.22,126.29-33.39A698.16,698.16,0,0,0,15.1-64.24H11.15C52.34-56.42,90.75-45.88,126-32.68,209.2-1.57,275.77,44.62,323.87,104.58Z" transform="translate(46.18 64.24)"/>
  </g>
  <g class="cls-1">
    <path class="cls-2" d="M742.85,486.76q67.91-6.91,149-29.36v-0.78c-57.11,15.84-109.52,25.91-156.88,30.14h7.91Z" transform="translate(46.18 64.24)"/>
  </g>
  <g class="cls-1">
    <path class="cls-2" d="M676.07,465.68c-64.53-4.8-115.68-23.31-156.37-56.6-53.62-43.76-71.95-99.43-91.36-158.38-18-54.69-36.63-111.24-83.61-169-48.37-59.42-115-105-198.11-135.42q-15.36-5.62-31.49-10.57h-2.58Q129.9-59,146.37-53c83,30.39,149.5,75.87,197.79,135.19,46.89,57.61,65.49,114.09,83.47,168.71,19.44,59.05,37.81,114.83,91.59,158.72,40.81,33.39,92.1,52,156.79,56.77q16.13,1.2,33.31,1.2c53.4,0,114.44-8.67,182.49-25.9v-0.78C809.18,461.88,736.88,470.21,676.07,465.68Z" transform="translate(46.18 64.24)"/>
  </g>
  <g class="cls-1">
    <path class="cls-2" d="M698,443.36c-64.35-5-115.44-23.67-156.2-57C488,342.54,469.37,286.92,449.67,228,431.38,173.37,412.46,116.83,365,59.39,321.49,6.7,263.42-34.8,192.15-64.24h-2c71.92,29.42,130.45,71.1,174.24,124.1,47.36,57.33,66.25,113.8,84.52,168.42,19.74,59,38.38,114.7,92.39,158.7,40.88,33.39,92.11,52.07,156.62,57.12q17,1.33,35.25,1.33c47.13,0,100.15-6.7,158.61-20v-0.77C818.31,441.41,753.42,447.7,698,443.36Z" transform="translate(46.18 64.24)"/>
  </g>
  <g class="cls-1">
    <path class="cls-2" d="M720,421c-64.17-5.28-115.2-24-156-57.31-54.06-44-72.94-99.52-92.93-158.33C452.43,150.72,433.21,94.19,385.3,37,351.12-3.74,308.14-37.63,257-64.24h-1.63C307-37.58,350.33-3.52,384.72,37.51c47.82,57.05,67,113.52,85.58,168.13,20,58.92,38.94,114.57,93.17,158.67,40.94,33.38,92.12,52.18,156.44,57.47q18,1.48,37.22,1.48c40.66,0,85.65-4.94,134.69-14.75v-0.77C827.31,420.65,769.81,425.13,720,421Z" transform="translate(46.18 64.24)"/>
  </g>
  <g class="cls-1">
    <path class="cls-2" d="M741.92,398.7c-64-5.52-115-24.38-155.86-57.66C531.79,297,512.63,241.5,492.35,182.75,473.48,128.08,454,71.55,405.58,14.67Q367-30.69,314-64.24h-1.39Q366-30.64,405,15.15C453.3,71.93,472.79,128.39,491.65,183c20.32,58.85,39.5,114.43,93.95,158.63,41,33.37,92.12,52.29,156.26,57.82q18.89,1.63,39.22,1.63,51,0,110.74-10.22v-0.76C836.18,399.62,786.06,402.51,741.92,398.7Z" transform="translate(46.18 64.24)"/>
  </g>
  <g class="cls-1">
    <path class="cls-2" d="M763.87,376.38c-63.8-5.76-114.73-24.73-155.68-58-54.49-44.16-73.92-99.58-94.48-158.25-19.16-54.67-39-111.21-87.85-167.81a389.38,389.38,0,0,0-60.65-56.54H364a388.84,388.84,0,0,1,61.32,57c48.78,56.49,68.57,113,87.71,167.57,20.6,58.77,40.06,114.29,94.72,158.59,41.08,33.37,92.13,52.4,156.09,58.17q19.84,1.79,41.26,1.79a632,632,0,0,0,86.75-6.43v-0.75C844.89,378.27,802.15,379.83,763.87,376.38Z" transform="translate(46.18 64.24)"/>
  </g>
  <g class="cls-1">
    <path class="cls-2" d="M785.82,354C722.2,348,671.34,329,630.31,295.69c-54.7-44.26-74.39-99.6-95.25-158.2C515.61,82.81,495.49,26.27,446.14-30.05a380.88,380.88,0,0,0-34.05-34.18H411a380.26,380.26,0,0,1,34.61,34.68c49.26,56.22,69.36,112.69,88.79,167.3,20.89,58.7,40.62,114.14,95.48,158.53,40.57,32.9,93,52.59,155.91,58.52q20.81,2,43.33,2a603.22,603.22,0,0,0,62.73-3.45v-0.76C853.45,356.57,818.05,357.09,785.82,354Z" transform="translate(46.18 64.24)"/>
  </g>
  <g class="cls-1">
    <path class="cls-2" d="M807.78,331.72C745.22,325.57,693,305.81,652.44,273c-54.9-44.35-74.86-99.62-96-158.14-19.75-54.69-40.17-111.24-90-167.29q-5.36-6-11-11.82h-1q5.88,6,11.49,12.32C515.61,4,536,60.51,555.73,115.13c21.17,58.62,41.17,114,96.23,158.47,40.63,32.89,93,52.7,155.74,58.87q21.78,2.14,45.45,2.14,18.75,0,38.67-1.35v-0.75A509.88,509.88,0,0,1,807.78,331.72Z" transform="translate(46.18 64.24)"/>
  </g>
  <g class="cls-1">
    <path class="cls-2" d="M829.73,309.4c-62.38-6.4-114.58-26.27-155.17-59.06-55.1-44.44-75.33-99.64-96.74-158.08C559,41,539.65-11.89,495.86-64.24h-1c44,52.4,63.42,105.4,82.24,156.76,21.45,58.54,41.71,113.84,97,158.4,40.7,32.89,93,52.81,155.56,59.22a467.09,467.09,0,0,0,47.6,2.33q7.2,0,14.57-.2v-0.76A483.7,483.7,0,0,1,829.73,309.4Z" transform="translate(46.18 64.24)"/>
  </g>
  <g class="cls-1">
    <path class="cls-2" d="M696.68,227.66c-55.3-44.52-75.79-99.64-97.48-158-16.33-43.94-33.13-89.08-65.44-133.89h-0.92c32.46,44.88,49.29,90.12,65.66,134.15,21.73,58.46,42.25,113.68,97.71,158.33,40.76,32.88,93,52.92,155.38,59.57q19.37,2.07,40.22,2.44v-0.75q-20.8-.38-40.14-2.44C789.48,280.43,737.33,260.45,696.68,227.66Z" transform="translate(46.18 64.24)"/>
  </g>
  <g class="cls-1">
    <path class="cls-2" d="M718.81,205c-55.49-44.6-76.24-99.65-98.21-157.92C606.81,10.47,592.68-27,569.5-64.24h-0.89c23.29,37.36,37.45,74.88,51.28,111.56,22,58.38,42.79,113.51,98.44,158.24,40.82,32.87,93,53,155.21,59.92q9,1,18.27,1.63v-0.76q-9.25-.63-18.19-1.61C811.6,257.87,759.51,237.76,718.81,205Z" transform="translate(46.18 64.24)"/>
  </g>
  <g class="cls-1">
    <path class="cls-2" d="M642,24.46c-11.17-29.22-22.54-59-38.6-88.7h-0.86c16.14,29.82,27.55,59.66,38.75,89C663.58,83,684.62,138.08,740.46,182.89c40.07,32.21,91,52.32,151.36,59.82V242c-60.2-7.49-110.95-27.55-150.89-59.65C685.25,137.62,664.24,82.66,642,24.46Z" transform="translate(46.18 64.24)"/>
  </g>
  <g class="cls-1">
    <path class="cls-2" d="M663.41,1.88c-8.46-21.82-17-43.94-27.6-66.12H635C645.61-42,654.22-19.76,662.71,2.15c22.55,58.2,43.85,113.18,99.87,158.06,35.15,28.21,78.54,47.23,129.23,56.71v-0.76c-50.51-9.47-93.74-28.42-128.76-56.53C707.19,114.87,685.92,60,663.41,1.88Z" transform="translate(46.18 64.24)"/>
  </g>
  <g class="cls-1">
    <path class="cls-2" d="M684.83-20.7c-5.66-14.41-11.37-28.95-17.67-43.54h-0.82c6.35,14.68,12.1,29.31,17.79,43.81,22.82,58.11,44.37,113,100.57,158,30,24,65.88,41.44,107.11,52V188.8c-41-10.59-76.79-27.94-106.64-51.86C729.13,92.12,707.61,37.32,684.83-20.7Z" transform="translate(46.18 64.24)"/>
  </g>
  <g class="cls-1">
    <path class="cls-2" d="M706.26-43.27c-2.77-7-5.55-14-8.41-21H697c2.89,7.1,5.71,14.19,8.52,21.24,23.09,58,44.89,112.83,101.27,157.85,24.53,19.62,53,34.88,85,45.66v-0.79C860,149,831.7,133.78,807.3,114.27,751.08,69.37,729.31,14.65,706.26-43.27Z" transform="translate(46.18 64.24)"/>
  </g>
  <g class="cls-1">
    <path class="cls-2" d="M728.34-64.24h-0.81C750.69-6.8,772.84,47.43,829,92.18a271.5,271.5,0,0,0,62.86,37.31v-0.82a270.67,270.67,0,0,1-62.39-37.08C773.55,47,751.42-7,728.34-64.24Z" transform="translate(46.18 64.24)"/>
  </g>
  <g class="cls-1">
    <path class="cls-2" d="M759.12-64.24H758.3C778.92-15.3,802.24,30.62,851.08,69.5a268.23,268.23,0,0,0,40.74,26.73V95.38a267.4,267.4,0,0,1-40.27-26.46C802.94,30.22,779.67-15.5,759.12-64.24Z" transform="translate(46.18 64.24)"/>
  </g>
  <g class="cls-1">
    <path class="cls-2" d="M790.71-64.24h-0.83c18.76,40.38,42,78.19,83.32,111.06q9,7.14,18.61,13.52v-0.9q-9.38-6.25-18.15-13.21C832.55,13.55,809.41-24.06,790.71-64.24Z" transform="translate(46.18 64.24)"/>
  </g>
  <g class="cls-1">
    <path class="cls-2" d="M823.74-64.24h-0.86c16.5,30.7,37.31,59.58,68.93,85.53v-1C860.68-5.35,840.1-33.89,823.74-64.24Z" transform="translate(46.18 64.24)"/>
  </g>
  <g class="cls-1">
    <path class="cls-2" d="M859-64.24h-0.89a271.5,271.5,0,0,0,33.73,42.58v-1.08A270.91,270.91,0,0,1,859-64.24Z" transform="translate(46.18 64.24)"/>
  </g>
	<animateTransform
		attributeName="transform"
		attributeType="XML"
		dur="20s"
		keyTimes="0; 0.25; 0.5; 0.75; 1"
		repeatCount="indefinite"
		type="translate"
		values="-25,-25; 25,-25; 25,25; -25,25; -25,-25"
		calcMode="splines"
		keySplines="0.445, 0.05, 0.55, 0.95; 0.445, 0.05, 0.55, 0.95; 0.445, 0.05, 0.55, 0.95; 0.445, 0.05, 0.55, 0.95; 0.445, 0.05, 0.55, 0.95" />
</g>
</svg>
